<mxfile host="app.diagrams.net" modified="2023-09-15T12:22:41.186Z" agent="Mozilla/5.0 (Windows NT 10.0; Win64; x64) AppleWebKit/537.36 (KHTML, like Gecko) Chrome/116.0.0.0 Safari/537.36" etag="Rgw3aq5desjpVNI7pBmm" version="21.7.5" type="github">
  <diagram name="Page-1" id="2YBvvXClWsGukQMizWep">
    <mxGraphModel dx="1531" dy="834" grid="1" gridSize="10" guides="1" tooltips="1" connect="1" arrows="1" fold="1" page="1" pageScale="1" pageWidth="850" pageHeight="1100" math="0" shadow="0">
      <root>
        <mxCell id="0" />
        <mxCell id="1" parent="0" />
        <mxCell id="WgwdQvURTCAarjMzq2pd-4" value="" style="endArrow=classic;html=1;rounded=0;" edge="1" parent="1">
          <mxGeometry width="50" height="50" relative="1" as="geometry">
            <mxPoint x="100" y="240" as="sourcePoint" />
            <mxPoint x="280" y="240" as="targetPoint" />
            <Array as="points">
              <mxPoint x="190" y="240" />
            </Array>
          </mxGeometry>
        </mxCell>
        <mxCell id="WgwdQvURTCAarjMzq2pd-8" value="" style="html=1;points=[[0,0,0,0,5],[0,1,0,0,-5],[1,0,0,0,5],[1,1,0,0,-5]];perimeter=orthogonalPerimeter;outlineConnect=0;targetShapes=umlLifeline;portConstraint=eastwest;newEdgeStyle={&quot;curved&quot;:0,&quot;rounded&quot;:0};" vertex="1" parent="1">
          <mxGeometry x="280" y="240" width="10" height="100" as="geometry" />
        </mxCell>
        <mxCell id="WgwdQvURTCAarjMzq2pd-9" value="View" style="shape=umlLifeline;perimeter=lifelinePerimeter;whiteSpace=wrap;html=1;container=1;dropTarget=0;collapsible=0;recursiveResize=0;outlineConnect=0;portConstraint=eastwest;newEdgeStyle={&quot;curved&quot;:0,&quot;rounded&quot;:0};" vertex="1" parent="1">
          <mxGeometry x="235" y="110" width="100" height="310" as="geometry" />
        </mxCell>
        <mxCell id="WgwdQvURTCAarjMzq2pd-12" value="" style="shape=umlLifeline;perimeter=lifelinePerimeter;whiteSpace=wrap;html=1;container=1;dropTarget=0;collapsible=0;recursiveResize=0;outlineConnect=0;portConstraint=eastwest;newEdgeStyle={&quot;curved&quot;:0,&quot;rounded&quot;:0};participant=umlActor;" vertex="1" parent="1">
          <mxGeometry x="90" y="110" width="20" height="310" as="geometry" />
        </mxCell>
        <mxCell id="WgwdQvURTCAarjMzq2pd-17" value="dispatch" style="html=1;verticalAlign=bottom;endArrow=block;curved=0;rounded=0;entryX=0;entryY=0;entryDx=0;entryDy=5;" edge="1" target="WgwdQvURTCAarjMzq2pd-16" parent="1" source="WgwdQvURTCAarjMzq2pd-9">
          <mxGeometry relative="1" as="geometry">
            <mxPoint x="425" y="245" as="sourcePoint" />
          </mxGeometry>
        </mxCell>
        <mxCell id="WgwdQvURTCAarjMzq2pd-18" value="return" style="html=1;verticalAlign=bottom;endArrow=open;dashed=1;endSize=8;curved=0;rounded=0;" edge="1" source="WgwdQvURTCAarjMzq2pd-16" parent="1">
          <mxGeometry relative="1" as="geometry">
            <mxPoint x="290" y="330" as="targetPoint" />
            <mxPoint x="460" y="330" as="sourcePoint" />
          </mxGeometry>
        </mxCell>
        <mxCell id="WgwdQvURTCAarjMzq2pd-22" value="Controller" style="shape=umlLifeline;perimeter=lifelinePerimeter;whiteSpace=wrap;html=1;container=1;dropTarget=0;collapsible=0;recursiveResize=0;outlineConnect=0;portConstraint=eastwest;newEdgeStyle={&quot;curved&quot;:0,&quot;rounded&quot;:0};" vertex="1" parent="1">
          <mxGeometry x="425" y="120" width="100" height="300" as="geometry" />
        </mxCell>
        <mxCell id="WgwdQvURTCAarjMzq2pd-16" value="" style="html=1;points=[[0,0,0,0,5],[0,1,0,0,-5],[1,0,0,0,5],[1,1,0,0,-5]];perimeter=orthogonalPerimeter;outlineConnect=0;targetShapes=umlLifeline;portConstraint=eastwest;newEdgeStyle={&quot;curved&quot;:0,&quot;rounded&quot;:0};" vertex="1" parent="WgwdQvURTCAarjMzq2pd-22">
          <mxGeometry x="45" y="125" width="10" height="100" as="geometry" />
        </mxCell>
        <mxCell id="WgwdQvURTCAarjMzq2pd-25" value="dispatch" style="html=1;verticalAlign=bottom;endArrow=block;curved=0;rounded=0;entryX=0;entryY=0;entryDx=0;entryDy=5;" edge="1" target="WgwdQvURTCAarjMzq2pd-24" parent="1" source="WgwdQvURTCAarjMzq2pd-22">
          <mxGeometry relative="1" as="geometry">
            <mxPoint x="530" y="275" as="sourcePoint" />
          </mxGeometry>
        </mxCell>
        <mxCell id="WgwdQvURTCAarjMzq2pd-27" value="Model" style="shape=umlLifeline;perimeter=lifelinePerimeter;whiteSpace=wrap;html=1;container=1;dropTarget=0;collapsible=0;recursiveResize=0;outlineConnect=0;portConstraint=eastwest;newEdgeStyle={&quot;curved&quot;:0,&quot;rounded&quot;:0};" vertex="1" parent="1">
          <mxGeometry x="640" y="120" width="100" height="300" as="geometry" />
        </mxCell>
        <mxCell id="WgwdQvURTCAarjMzq2pd-24" value="" style="html=1;points=[[0,0,0,0,5],[0,1,0,0,-5],[1,0,0,0,5],[1,1,0,0,-5]];perimeter=orthogonalPerimeter;outlineConnect=0;targetShapes=umlLifeline;portConstraint=eastwest;newEdgeStyle={&quot;curved&quot;:0,&quot;rounded&quot;:0};" vertex="1" parent="WgwdQvURTCAarjMzq2pd-27">
          <mxGeometry x="45" y="135" width="10" height="90" as="geometry" />
        </mxCell>
        <mxCell id="WgwdQvURTCAarjMzq2pd-28" value="return" style="html=1;verticalAlign=bottom;endArrow=open;dashed=1;endSize=8;curved=0;rounded=0;" edge="1" parent="1" source="WgwdQvURTCAarjMzq2pd-24" target="WgwdQvURTCAarjMzq2pd-22">
          <mxGeometry relative="1" as="geometry">
            <mxPoint x="610" y="340" as="sourcePoint" />
            <mxPoint x="530" y="340" as="targetPoint" />
            <Array as="points">
              <mxPoint x="570" y="340" />
            </Array>
          </mxGeometry>
        </mxCell>
        <mxCell id="WgwdQvURTCAarjMzq2pd-29" value="Administrador" style="text;align=center;fontStyle=1;verticalAlign=middle;spacingLeft=3;spacingRight=3;strokeColor=none;rotatable=0;points=[[0,0.5],[1,0.5]];portConstraint=eastwest;html=1;" vertex="1" parent="1">
          <mxGeometry x="60" y="84" width="80" height="26" as="geometry" />
        </mxCell>
        <mxCell id="WgwdQvURTCAarjMzq2pd-30" value="frame" style="shape=umlFrame;whiteSpace=wrap;html=1;pointerEvents=0;" vertex="1" parent="1">
          <mxGeometry x="30" y="50" width="760" height="370" as="geometry" />
        </mxCell>
      </root>
    </mxGraphModel>
  </diagram>
</mxfile>
